<!DOCTYPE svg PUBLIC "-//W3C//DTD SVG 1.1//EN" "http://www.w3.org/Graphics/SVG/1.1/DTD/svg11.dtd">
<!-- Uploaded to: SVG Repo, www.svgrepo.com, Transformed by: SVG Repo Mixer Tools -->
<svg width="800px" height="800px" viewBox="0 0 64 64" enable-background="new 0 0 64 64" id="Layer_1" version="1.1" xml:space="preserve" xmlns="http://www.w3.org/2000/svg" xmlns:xlink="http://www.w3.org/1999/xlink" fill="#000000">
<g id="SVGRepo_bgCarrier" stroke-width="0"/>
<g id="SVGRepo_tracerCarrier" stroke-linecap="round" stroke-linejoin="round"/>
<g id="SVGRepo_iconCarrier"> <g> <path d="M58.606,31.687c-0.364-0.567-0.903-0.975-1.521-1.255C56.466,30.152,55.755,30.001,55,30H41.375 c-0.111,0-0.213,0.029-0.313,0.063C40.963,30.029,40.861,30,40.75,30H6c-0.552,0-1,0.447-1,1v7c0.004,2.207,1.793,3.996,4,4h28.75 c2.207-0.004,3.996-1.793,4-4v-2H55c1.007-0.003,1.935-0.267,2.673-0.756c0.368-0.246,0.692-0.553,0.933-0.931 C58.848,33.938,59.001,33.481,59,33C59.001,32.519,58.848,32.062,58.606,31.687z M39.162,39.412C38.794,39.777,38.299,40,37.75,40 H9c-0.549,0-1.044-0.223-1.412-0.588C7.223,39.045,7,38.55,7,38v-6h32.75v6C39.75,38.55,39.527,39.045,39.162,39.412z M56.92,33.239c-0.093,0.15-0.316,0.354-0.657,0.507C55.925,33.899,55.482,34.001,55,34H41.75v-2H55 c0.643-0.003,1.215,0.184,1.564,0.42c0.175,0.116,0.293,0.241,0.356,0.341C56.983,32.863,56.999,32.932,57,33 C56.999,33.068,56.983,33.137,56.92,33.239z" fill="#ffffff"/> <path d="M10,34c-0.552,0-1,0.447-1,1v2c0,0.553,0.448,1,1,1s1-0.447,1-1v-2C11,34.447,10.552,34,10,34z" fill="#ffffff"/> <path d="M11.524,16.687c-1.128,1.549-1.528,3.164-1.524,4.569c0.015,2.819,1.472,4.789,1.524,4.876 c0.324,0.447,0.95,0.547,1.397,0.223c0.446-0.323,0.545-0.946,0.224-1.394h0l-0.002-0.003l0,0 c-0.036-0.036-1.157-1.693-1.143-3.702c0.004-1.046,0.271-2.188,1.143-3.396c1.128-1.549,1.528-3.165,1.524-4.57 c-0.015-2.819-1.472-4.79-1.524-4.877c-0.324-0.447-0.949-0.547-1.396-0.223c-0.446,0.323-0.545,0.946-0.224,1.394h0l0.002,0.003 l0,0c0.036,0.036,1.157,1.694,1.143,3.703C12.663,14.336,12.396,15.479,11.524,16.687z" fill="#ffffff"/> <path d="M32.524,16.687c-1.128,1.549-1.528,3.164-1.524,4.569c0.015,2.819,1.472,4.789,1.524,4.876 c0.324,0.447,0.95,0.547,1.397,0.223c0.446-0.323,0.545-0.946,0.224-1.394h0l-0.002-0.003l0,0 c-0.036-0.036-1.157-1.693-1.143-3.702c0.004-1.046,0.271-2.188,1.143-3.396c1.128-1.549,1.528-3.165,1.524-4.57 c-0.015-2.819-1.472-4.79-1.524-4.877c-0.324-0.447-0.949-0.547-1.396-0.223c-0.446,0.323-0.545,0.946-0.224,1.394h0l0.002,0.003 l0,0c0.036,0.036,1.157,1.694,1.143,3.703C33.663,14.336,33.396,15.479,32.524,16.687z" fill="#ffffff"/> <path d="M22.024,16.688c-1.128,1.549-1.528,3.164-1.524,4.568c0.015,2.819,1.472,4.789,1.524,4.876 c0.324,0.447,0.95,0.547,1.397,0.223c0.446-0.323,0.545-0.946,0.224-1.394h0l-0.002-0.003l0,0 c-0.036-0.036-1.157-1.693-1.143-3.702c0.004-1.045,0.271-2.187,1.143-3.395c1.128-1.55,1.528-3.166,1.524-4.571 c-0.015-2.819-1.472-4.79-1.524-4.877c-0.324-0.447-0.95-0.547-1.396-0.223c-0.446,0.323-0.545,0.946-0.224,1.394h0l0.002,0.003 l0,0c0.036,0.036,1.156,1.693,1.143,3.703C23.163,14.336,22.896,15.479,22.024,16.688z" fill="#ffffff"/> <path d="M38,51h-3.765c0.041-0.075,0.087-0.146,0.125-0.224c0.333-0.693,0.515-1.495,0.515-2.35 c-0.001-0.691-0.221-1.306-0.507-1.82c-0.435-0.773-1.024-1.36-1.506-1.778C32.38,44.413,32,44.173,31.97,44.154 c-0.326-0.206-0.739-0.206-1.065,0c-0.04,0.025-0.701,0.44-1.399,1.148c-0.349,0.356-0.709,0.787-0.998,1.304 c-0.287,0.515-0.506,1.129-0.507,1.82c0.001,0.951,0.236,1.831,0.646,2.573h-2.412c0.041-0.075,0.087-0.146,0.125-0.224 c0.333-0.693,0.515-1.495,0.515-2.35c-0.001-0.691-0.221-1.306-0.507-1.82c-0.435-0.773-1.024-1.36-1.506-1.778 C24.38,44.413,24,44.173,23.97,44.154c-0.326-0.206-0.739-0.206-1.065,0c-0.04,0.025-0.701,0.44-1.399,1.148 c-0.349,0.356-0.709,0.787-0.998,1.304c-0.287,0.515-0.506,1.129-0.507,1.82c0.001,0.951,0.236,1.831,0.646,2.573h-2.205 c0.013-0.026,0.03-0.051,0.043-0.078C18.817,50.229,19,49.427,19,48.573c-0.001-0.691-0.221-1.306-0.507-1.821 c-0.435-0.773-1.024-1.36-1.506-1.778c-0.482-0.415-0.862-0.655-0.892-0.674c-0.326-0.206-0.739-0.206-1.065,0 c-0.04,0.025-0.701,0.44-1.399,1.149c-0.349,0.355-0.709,0.786-0.998,1.303c-0.287,0.516-0.506,1.13-0.507,1.821 c0.001,0.888,0.201,1.716,0.561,2.427H9c-0.552,0-1,0.447-1,1s0.448,1,1,1h29c0.552,0,1-0.447,1-1S38.552,51,38,51z M30.254,47.58 c0.251-0.456,0.689-0.916,1.065-1.237c0.042-0.036,0.078-0.063,0.117-0.096c0.174,0.143,0.365,0.309,0.556,0.508 c0.251,0.261,0.486,0.561,0.645,0.854c0.16,0.295,0.239,0.571,0.239,0.818c0.002,0.754-0.225,1.42-0.529,1.844 c-0.151,0.213-0.317,0.364-0.471,0.455c-0.156,0.091-0.292,0.128-0.438,0.129c-0.145-0.001-0.282-0.038-0.438-0.129 c-0.23-0.135-0.49-0.412-0.682-0.815C30.124,49.509,30,48.992,30,48.427C29.999,48.172,30.084,47.886,30.254,47.58z M22.254,47.58 c0.251-0.456,0.689-0.916,1.065-1.237c0.042-0.036,0.078-0.063,0.117-0.096c0.174,0.143,0.365,0.309,0.556,0.508 c0.251,0.261,0.486,0.561,0.645,0.854c0.16,0.295,0.239,0.571,0.239,0.818c0.002,0.754-0.225,1.42-0.529,1.844 c-0.151,0.213-0.317,0.364-0.471,0.455c-0.156,0.091-0.292,0.128-0.438,0.129c-0.145-0.001-0.282-0.038-0.438-0.129 c-0.23-0.135-0.49-0.412-0.682-0.815C22.124,49.509,22,48.992,22,48.427C21.999,48.172,22.084,47.886,22.254,47.58z M15.125,50.871 c-0.23-0.135-0.49-0.412-0.683-0.815c-0.193-0.401-0.318-0.917-0.317-1.482c-0.001-0.255,0.084-0.542,0.254-0.848 c0.251-0.456,0.689-0.916,1.065-1.237c0.042-0.036,0.078-0.063,0.117-0.097c0.174,0.144,0.365,0.31,0.555,0.509 c0.251,0.261,0.486,0.561,0.645,0.854C16.921,48.05,17,48.326,17,48.573c0.002,0.754-0.224,1.42-0.529,1.843 C16.32,50.629,16.154,50.78,16,50.871c-0.156,0.091-0.292,0.128-0.438,0.129C15.417,50.999,15.281,50.962,15.125,50.871z" fill="#ffffff"/> </g> </g>
</svg>