<!DOCTYPE svg PUBLIC "-//W3C//DTD SVG 1.1//EN" "http://www.w3.org/Graphics/SVG/1.1/DTD/svg11.dtd">
<!-- Uploaded to: SVG Repo, www.svgrepo.com, Transformed by: SVG Repo Mixer Tools -->
<svg fill="#ffffff" height="800px" width="800px" version="1.1" id="Layer_1" xmlns="http://www.w3.org/2000/svg" xmlns:xlink="http://www.w3.org/1999/xlink" viewBox="0 0 512 512" xml:space="preserve">
<g id="SVGRepo_bgCarrier" stroke-width="0"/>
<g id="SVGRepo_tracerCarrier" stroke-linecap="round" stroke-linejoin="round"/>
<g id="SVGRepo_iconCarrier"> <g> <g> <path d="M332.706,105.935v-60.01H179.294v60.011H0v360.14h512V105.935H332.706z M212.685,79.316h86.629v26.62h-86.629V79.316z M89.689,432.685H33.391V139.326h56.298v131.597c-5.711,1.736-11.006,4.868-15.408,9.271 c-6.482,6.482-10.221,14.898-10.784,23.738c-5.852,6.65-9.161,15.246-9.161,24.417c0,9.17,3.309,17.766,9.161,24.417 c0.564,8.84,4.302,17.255,10.784,23.738c4.374,4.374,9.65,7.516,15.408,9.259V432.685z M119.327,361.319l-6.323-10.207 l-11.688,2.746c-0.286,0.068-0.573,0.101-0.85,0.101c-0.688,0-1.693-0.185-2.574-1.066c-1.329-1.329-1.074-2.958-0.964-3.427 l2.744-11.687l-10.206-6.322c-0.409-0.253-1.74-1.224-1.74-3.108s1.332-2.854,1.74-3.108l10.206-6.322l-2.744-11.689 c-0.11-0.468-0.365-2.097,0.964-3.426c1.33-1.329,2.96-1.074,3.426-0.965l11.688,2.746l6.323-10.207 c0.253-0.408,1.224-1.74,3.108-1.74c1.883,0,2.853,1.331,3.107,1.74l6.322,10.208l11.688-2.746 c0.469-0.108,2.097-0.364,3.426,0.965s1.074,2.958,0.964,3.427l-2.744,11.687l10.206,6.322c0.408,0.253,1.74,1.224,1.74,3.108 s-1.332,2.854-1.74,3.108l-10.206,6.322l2.744,11.687c0.11,0.467,0.365,2.097-0.964,3.427c-0.882,0.882-1.887,1.066-2.574,1.066 c-0.278,0-0.568-0.035-0.857-0.102l-11.686-2.74l-6.32,10.203c-0.253,0.407-1.223,1.739-3.107,1.739 C120.551,363.059,119.581,361.726,119.327,361.319z M388.919,432.681H123.08v-36.249c8.938-0.151,17.297-3.438,23.792-9.165 c8.962-0.587,17.307-4.358,23.716-10.766c6.482-6.482,10.221-14.898,10.784-23.738c5.852-6.65,9.161-15.246,9.161-24.417 c0-9.17-3.309-17.766-9.161-24.417c-0.564-8.84-4.302-17.255-10.785-23.738c-6.483-6.482-14.898-10.221-23.738-10.784 c-6.492-5.715-14.844-8.995-23.77-9.146V139.326h265.84v130.212c-1.047-0.656-2.114-1.286-3.221-1.857 c-10.651-5.493-22.804-6.511-34.219-2.862c-11.415,3.647-20.727,11.522-26.22,22.173c-10.756,20.857-1.129,47.136,8.461,67.7 c4.042,8.667,10.116,19.321,10.374,19.771l5.375,9.41l10.783-1.077c0.515-0.051,12.719-1.28,22.123-3.013 c2.144-0.395,4.332-0.821,6.544-1.287V432.681z M412.761,332.116c-1.39,2.697-7.723,9.54-36.437,14.829 c-2.654,0.489-5.658,0.941-8.495,1.326c-1.329-2.532-2.702-5.24-3.846-7.69c-12.339-26.459-10.437-35.587-9.046-38.284 c1.405-2.724,3.785-4.737,6.705-5.671c1.151-0.367,2.331-0.55,3.505-0.55c1.805,0,3.596,0.431,5.247,1.282 c2.948,1.52,5.028,4.135,5.853,7.364l4.658,18.193l17.522-6.755c3.108-1.2,6.446-1.022,9.393,0.499 C413.446,319.558,415.661,326.493,412.761,332.116z M478.609,432.683h-56.298v-65.617c8.491-4.736,15.692-11.044,20.127-19.645 c11.34-21.987,2.676-49.101-19.312-60.44c-0.268-0.139-0.544-0.256-0.815-0.39V139.326h56.298V432.683z"/> </g> </g> <g> <g> <path d="M197.828,156.836l-34.847,80.642l117.799,50.903l34.847-80.642L197.828,156.836z M263.374,244.484l-56.496-24.412 l8.357-19.339l56.496,24.412L263.374,244.484z"/> </g> </g> </g>
</svg>